<svg xmlns="http://www.w3.org/2000/svg" xmlns:xlink="http://www.w3.org/1999/xlink" width="220" zoomAndPan="magnify" viewBox="0 0 165 82.499998" height="110" preserveAspectRatio="xMidYMid meet" version="1.0"><defs><g/></defs><path fill="#39b54a" d="M 79.949219 41.519531 C 78.285156 37.703125 75.816406 30.277344 78.242188 22.34375 C 82.222656 9.328125 97.839844 0 116.632812 1.207031 C 119.125 17.082031 112.976562 31.957031 101.390625 38.59375 C 93.582031 43.0625 85.496094 42.542969 81.667969 42.007812 C 85.589844 39.046875 89.988281 35.238281 94.390625 30.417969 C 101.179688 22.976562 105.714844 15.59375 108.714844 9.703125 C 104.402344 15.699219 99.222656 22.175781 93.035156 28.792969 C 88.570312 33.566406 84.160156 37.792969 79.949219 41.519531 Z M 79.949219 41.519531 " fill-opacity="1" fill-rule="nonzero"/><path fill="#39b54a" d="M 74.9375 41.933594 C 72.003906 42.816406 66.359375 43.980469 60.765625 41.542969 C 51.585938 37.539062 46.089844 25.382812 48.578125 11.816406 C 60.402344 11.351562 70.757812 17.09375 74.625 26.089844 C 77.230469 32.148438 76.160156 37.984375 75.441406 40.726562 C 73.609375 37.621094 71.199219 34.09375 68.046875 30.484375 C 63.183594 24.910156 58.171875 20.980469 54.117188 18.296875 C 58.132812 21.945312 62.429688 26.261719 66.742188 31.328125 C 69.855469 34.984375 72.574219 38.550781 74.9375 41.933594 Z M 74.9375 41.933594 " fill-opacity="1" fill-rule="nonzero"/><g fill="#000000" fill-opacity="1"><g transform="translate(10.424975, 70.652752)"><g><path d="M 7.164062 0 L 12.539062 0 L 12.539062 -17.785156 L 19.230469 -17.785156 L 19.230469 -22.371094 L 0.472656 -22.371094 L 0.472656 -17.785156 L 7.164062 -17.785156 Z M 7.164062 0 "/></g></g></g><g fill="#000000" fill-opacity="1"><g transform="translate(29.430889, 70.652752)"><g><path d="M 6.222656 0.472656 C 8.925781 0.472656 11.027344 -0.847656 12.066406 -2.765625 L 12.097656 -2.765625 L 12.160156 -2.199219 C 12.378906 -0.722656 13.886719 0.472656 15.835938 0.472656 C 17.3125 0.472656 18.980469 -0.03125 19.953125 -1.003906 L 18.820312 -3.550781 C 18.476562 -3.109375 17.972656 -2.828125 17.566406 -2.828125 C 17.0625 -2.828125 16.746094 -3.269531 16.746094 -3.992188 L 16.746094 -10.210938 C 16.746094 -14.234375 13.699219 -16.714844 8.988281 -16.714844 C 4.367188 -16.714844 1.257812 -14.296875 0.972656 -10.964844 L 5.65625 -10.242188 C 5.8125 -11.847656 7.164062 -13.230469 9.113281 -13.230469 C 10.839844 -13.230469 12.035156 -12.316406 12.035156 -10.933594 C 12.035156 -10.273438 11.53125 -9.835938 10.777344 -9.773438 L 7.667969 -9.394531 C 2.859375 -8.890625 0.472656 -6.882812 0.472656 -4.117188 C 0.472656 -1.351562 2.859375 0.472656 6.222656 0.472656 Z M 8.042969 -2.828125 C 6.441406 -2.828125 5.277344 -3.582031 5.277344 -4.683594 C 5.277344 -5.71875 6.191406 -6.566406 8.859375 -6.882812 L 11.941406 -7.226562 L 11.941406 -6.566406 C 11.941406 -4.398438 10.304688 -2.828125 8.042969 -2.828125 Z M 8.042969 -2.828125 "/></g></g></g><g fill="#000000" fill-opacity="1"><g transform="translate(48.688126, 70.652752)"><g><path d="M 11.785156 -16.558594 C 9.238281 -16.558594 7.226562 -15.332031 6.066406 -13.164062 L 6.03125 -13.164062 L 5.308594 -16.089844 L 1.257812 -16.089844 L 1.257812 0 L 6.066406 0 L 6.066406 -8.890625 C 6.066406 -11.09375 7.511719 -12.570312 9.582031 -12.570312 C 11.25 -12.570312 12.285156 -11.4375 12.285156 -9.613281 L 12.285156 0 L 17.09375 0 L 17.09375 -11.09375 C 17.09375 -14.515625 15.082031 -16.558594 11.785156 -16.558594 Z M 11.785156 -16.558594 "/></g></g></g><g fill="#000000" fill-opacity="1"><g transform="translate(66.248953, 70.652752)"><g><path d="M 1.726562 0 L 7.101562 0 L 7.101562 -8.421875 L 15.175781 -8.421875 L 15.175781 -12.507812 L 7.101562 -12.507812 L 7.101562 -17.785156 L 17.03125 -17.785156 L 17.03125 -22.371094 L 1.726562 -22.371094 Z M 1.726562 0 "/></g></g></g><g fill="#000000" fill-opacity="1"><g transform="translate(83.150055, 70.652752)"><g><path d="M 10.371094 -16.589844 C 8.390625 -16.589844 6.722656 -15.429688 5.84375 -13.480469 L 5.8125 -13.480469 L 5.089844 -16.089844 L 1.257812 -16.089844 L 1.257812 0 L 6.066406 0 L 6.066406 -8.765625 C 6.066406 -11.40625 7.164062 -12.976562 8.957031 -12.976562 C 10.335938 -12.976562 11.25 -11.847656 11.40625 -9.867188 L 15.460938 -10.964844 C 15.082031 -14.546875 13.164062 -16.589844 10.371094 -16.589844 Z M 10.371094 -16.589844 "/></g></g></g><g fill="#000000" fill-opacity="1"><g transform="translate(98.386154, 70.652752)"><g><path d="M 6.472656 0.472656 C 9.019531 0.472656 11.027344 -0.753906 12.191406 -2.921875 L 12.222656 -2.921875 L 12.945312 0 L 17 0 L 17 -16.089844 L 12.191406 -16.089844 L 12.191406 -7.195312 C 12.191406 -4.996094 10.746094 -3.519531 8.671875 -3.519531 C 7.007812 -3.519531 5.96875 -4.652344 5.96875 -6.472656 L 5.96875 -16.089844 L 1.164062 -16.089844 L 1.164062 -4.996094 C 1.164062 -1.570312 3.171875 0.472656 6.472656 0.472656 Z M 6.472656 0.472656 "/></g></g></g><g fill="#000000" fill-opacity="1"><g transform="translate(115.978388, 70.652752)"><g><path d="M 3.769531 -18.289062 C 5.46875 -18.289062 6.628906 -19.386719 6.628906 -21.019531 C 6.628906 -22.6875 5.46875 -23.785156 3.769531 -23.785156 C 2.074219 -23.785156 0.941406 -22.6875 0.941406 -21.019531 C 0.941406 -19.386719 2.074219 -18.289062 3.769531 -18.289062 Z M 1.382812 0 L 6.160156 0 L 6.160156 -16.089844 L 1.382812 -16.089844 Z M 1.382812 0 "/></g></g></g><g fill="#000000" fill-opacity="1"><g transform="translate(122.858068, 70.652752)"><g><path d="M 9.425781 0.628906 C 11.75 0.628906 14.078125 -0.472656 15.207031 -2.292969 L 13.761719 -5.308594 C 13.007812 -3.929688 11.941406 -3.238281 10.496094 -3.238281 C 9.082031 -3.238281 7.980469 -4.304688 7.980469 -6.066406 L 7.980469 -12.441406 L 14.359375 -12.441406 L 14.359375 -16.089844 L 7.980469 -16.089844 L 7.980469 -21.554688 L 3.171875 -20.519531 L 3.171875 -16.089844 L 0.15625 -16.089844 L 0.15625 -12.441406 L 3.171875 -12.441406 L 3.171875 -5.308594 C 3.171875 -1.664062 5.5625 0.628906 9.425781 0.628906 Z M 9.425781 0.628906 "/></g></g></g><g fill="#000000" fill-opacity="1"><g transform="translate(137.748606, 70.652752)"><g><path d="M 8.453125 0.566406 C 13.070312 0.566406 16.277344 -1.570312 16.277344 -4.902344 C 16.277344 -7.574219 14.546875 -9.019531 10.496094 -9.742188 L 8.105469 -10.148438 C 6.191406 -10.496094 5.375 -10.996094 5.375 -11.816406 C 5.40625 -12.789062 6.535156 -13.574219 8.042969 -13.574219 C 9.773438 -13.574219 11.0625 -12.695312 11.1875 -11.3125 L 15.269531 -11.910156 C 14.863281 -14.738281 12.003906 -16.652344 8.199219 -16.652344 C 4.085938 -16.652344 1.289062 -14.644531 1.289062 -11.375 C 1.289062 -8.734375 2.796875 -7.382812 6.347656 -6.820312 L 8.734375 -6.441406 C 10.996094 -6.066406 11.972656 -5.5 11.972656 -4.523438 C 11.972656 -3.425781 10.527344 -2.640625 8.734375 -2.640625 C 6.566406 -2.640625 4.902344 -3.738281 4.746094 -5.46875 L 0.566406 -4.996094 C 0.785156 -1.414062 4.117188 0.566406 8.453125 0.566406 Z M 8.453125 0.566406 "/></g></g></g></svg>